<?xml version="1.0" encoding="utf-8"?>
<!-- Generator: Adobe Illustrator 16.0.0, SVG Export Plug-In . SVG Version: 6.00 Build 0)  -->
<!DOCTYPE svg PUBLIC "-//W3C//DTD SVG 1.1//EN" "http://www.w3.org/Graphics/SVG/1.1/DTD/svg11.dtd">
<svg version="1.1" id="Layer_1" xmlns="http://www.w3.org/2000/svg" xmlns:xlink="http://www.w3.org/1999/xlink" x="0px" y="0px"
	 width="390px" height="403px" viewBox="0 0 390 403" enable-background="new 0 0 390 403" xml:space="preserve">
<path fill="#FFFFFF" d="M47.242,80.199c-0.122-0.971,0.961-1.799,2.322-1.968c3.209-0.401,4.729,0.692,5.664,3.439
	c0.779,2.273,1.532,5.143,2.274,11.074c4.208,33.648-4.533,56.962-15.424,58.324c-2.724,0.34-6.869-1.215-7.671-7.633l-6.846-54.75
	c-8.618,2.163-15,9.579-13.468,21.832c0.973,7.78,5.483,12.253,6.747,12.095c0.583-0.073,1.021-0.523,1.507-0.584
	c0.487-0.061,0.838,0.39,0.924,1.071c0.511,4.084-3.197,8.4-6.273,6.71c-3.694-1.909-9.359-8.509-10.587-18.331
	C3.834,90.862,18.833,82.073,30.309,80.638c2.042-0.255,4.108,1.263,4.401,3.597l7.21,57.667c0.158,1.264,0.656,1.3,1.044,1.252
	c2.918-0.365,11.05-16.69,7.11-48.198C48.871,85.33,47.437,81.755,47.242,80.199"/>
<path fill="#FFFFFF" d="M107.97,126.632c-0.511,5.397-3.951,10.273-10.563,11.099c-1.751,0.219-3.331,0.219-4.851-0.084
	c-1.908,4.485-5.251,7.766-10.794,8.459c-9.822,1.228-15.244-6.587-16.459-16.312c-1.788-14.295,4.91-23.923,7.049-24.19
	c2.528-0.316,5.119,4.595,2.797,6.563c-1.265,2.53-3.731,6.492-2.528,16.119c1.021,8.169,4.742,11.853,8.534,11.379
	c2.723-0.341,4.291-2.018,5.275-4.413c-5.058-3.32-8.291-9.433-9.167-16.435c-0.766-6.127,1.204-11.707,6.455-12.364
	c4.57-0.571,9.13,5.872,10.31,15.304c0.45,3.598,0.51,7.245-0.049,10.673c0.705,0.11,1.289,0.037,1.97-0.048
	c4.182-0.523,6.017-4.012,6.126-7.877C102.184,122.22,108.553,121.028,107.97,126.632 M87.487,128.699c0-1.58-0.085-3.05-0.268-4.51
	c-0.826-6.612-1.727-11.438-3.769-11.183c-1.07,0.133-1.458,1.762-1.082,4.777C82.917,122.16,84.886,126.061,87.487,128.699"/>
<path fill="#FFFFFF" d="M100.862,125.051c-1.398-11.184,3.805-23.291,13.042-24.446c6.71-0.839,10.005,4.972,10.431,8.375
	c0.462,3.695-6.004,6.48-5.848,3.002c-0.691-1.592-1.337-5.166-4.643-4.752c-3.598,0.45-6.102,8.071-5.007,16.824
	c0.96,7.682,5.677,11.438,11.414,10.721c7.585-0.948,10.296-7.708,10.721-13.786c0.328-4.485,6.018-3.221,6.055,0.231
	c0.061,6.018-2.747,18.318-17.042,20.106C111.33,142.409,102.358,137.013,100.862,125.051"/>
<path fill="#FFFFFF" d="M139.728,126.217c1.776,3.136,4.741,5.531,9.799,4.898c7.585-0.948,9.906-7.659,10.331-13.736
	c0.329-4.486,6.018-3.221,6.055,0.23c0.061,6.018-2.358,18.27-16.654,20.058c-8.85,1.106-18.101-4.946-19.621-17.103
	c-1.544-12.35,4.692-22.513,12.18-23.449c5.446-0.681,9.251,2.893,9.98,8.728C152.699,113.04,148.809,122.217,139.728,126.217
	 M150.959,87.281c0.449,0.438,0.899,0.875,0.96,1.361c0.134,1.07-1.471,2.456-4.096,2.783c-1.07,0.134-1.909-0.255-2.262-0.705
	l-5.689-6.795l-3.342,7.233c-0.377,0.936-0.669,1.762-2.126,1.945c-1.751,0.219-4.39-1.131-4.56-2.491
	c-0.025-0.195,0.061-0.303,0.146-0.413l5.591-10.576c0.949-1.897,2.493-2.978,4.146-3.185c2.333-0.292,2.637,0.558,3.646,2.309
	L150.959,87.281z M137.893,121.014c4.583-2.845,7.063-8.29,6.333-14.125c-0.268-2.14-1.204-3.306-2.468-3.147
	c-4.766,0.596-4.887,11.475-4.181,15.535C137.649,119.86,137.82,120.431,137.893,121.014"/>
<path fill="#FFFFFF" d="M187.557,115.396c0.437-4.401,1.787-10.199,2.893-15.572c-1.155-1.337-1.921-2.723-2.127-4.376
	c-0.414-3.307,4.679-8.388,7.305-8.716c2.335-0.292,3.72,1.313,4.048,3.938c0.353,2.82-1.482,6.309-1.506,6.904
	c5.579,7.5,11.948,10.26,13.104,19.499c0.146,1.166,0.109,2.456-0.048,3.561c4.448-1.544,6.418-4.753,7.098-7.999
	c0.451-1.932,1.034-2.795,1.909-2.904c1.652-0.207,3.817,2.09,3.987,3.452c0.243,1.944-1.531,5.919-3.537,8.047
	c-2.71,2.808-6.467,5.155-12.447,6.297c-2.079,2.333-5.105,4.193-9.093,4.691c-4.085,0.511-9.032-1.142-11.207-2.746
	c-5.337-3.975-3.356-9.458-1.216-9.725c1.944-0.243,11.5,4.291,16.361,3.683c0.913-1.398,1.703-3.768,1.398-6.199
	c-0.766-6.128-4.875-9.762-8.716-12.838c-1.082,3.988-1.641,7.416-2.322,12.242C192.881,120.854,187.192,118.8,187.557,115.396"/>
<path fill="#FFFFFF" d="M252.849,108.318c0.133-2.09,0.996-3.087,1.969-3.209c1.557-0.194,3.672,1.714,3.902,3.563
	c0.014,0.097,0.037,0.291-0.012,0.692c-0.851,6.625-3.646,15.863-12.01,16.908c-3.404,0.426-6.236-0.898-7.986-3.05
	c-1.665,2.48-4.17,4.571-7.864,5.033c-7.586,0.948-12.376-4.971-13.409-13.238c-2.03-16.24,8.01-27.569,19.875-29.053
	c2.625-0.328,4.667,0.997,4.983,3.526c0.206,1.653-0.012,2.273-0.984,2.394c-0.875,0.109-1.873,0.037-2.846,0.159
	c-7.39,0.924-15.255,8.327-13.504,22.331c0.633,5.056,3.137,7.708,6.541,7.281c2.625-0.328,4.084-2.881,4.813-5.738l-1.872-14.976
	c-0.231-1.847-0.692-2.382-0.777-3.063c-0.122-0.972,0.959-1.798,2.32-1.969c3.209-0.401,5.495,1.288,5.788,3.622l2.006,16.045
	c0.268,2.141,1.53,4.354,3.865,4.061C251.535,119.15,252.508,112.707,252.849,108.318"/>
<path fill="#FFFFFF" d="M269.358,83.933c5.155-0.645,10.929,3.671,12.291,14.563c0.474,3.792,0.475,7.743-0.073,11.269
	c0.705,0.109,1.386,0.024,2.066-0.061c4.183-0.523,6.019-4.011,6.127-7.877c0.109-2.285,6.479-3.477,5.896,2.127
	c-0.513,5.397-3.951,10.272-10.564,11.099c-1.75,0.219-3.427,0.23-5.044-0.06c-1.909,4.485-5.349,7.778-10.989,8.484
	c-8.946,1.118-14.551-4.995-15.742-14.526l-5.8-46.386c-0.353-2.82-1.349-2.893-1.435-3.574c-0.085-0.681,1.617-1.29,2.979-1.46
	c3.209-0.401,5.494,1.29,5.786,3.623l5.69,45.511c0.802,6.418,3.635,10.905,8.303,10.321c2.432-0.304,3.914-1.874,4.825-4.061
	c-6.041-3.294-10.296-9.676-11.159-16.58C261.531,88.467,264.788,84.504,269.358,83.933 M274.672,106.677
	c0.109-2.285-0.084-4.631-0.315-6.479c-0.814-6.515-2.931-10.005-4.682-9.785c-1.263,0.158-1.519,2.066-1.179,4.789
	C269.08,99.87,271.476,104.015,274.672,106.677"/>
<path fill="#FFFFFF" d="M298.538,107.149c1.774,3.136,4.742,5.531,9.797,4.899c7.588-0.949,9.909-7.66,10.334-13.738
	c0.327-4.485,6.018-3.22,6.054,0.231c0.061,6.018-2.358,18.271-16.653,20.058c-8.85,1.106-18.101-4.946-19.621-17.103
	c-1.544-12.35,4.691-22.513,12.182-23.449c5.444-0.681,9.25,2.893,9.979,8.728C311.509,93.973,307.619,103.15,298.538,107.149
	 M296.703,101.946c4.583-2.845,7.063-8.29,6.333-14.125c-0.269-2.14-1.204-3.306-2.469-3.147
	c-4.766,0.596-4.886,11.475-4.181,15.535C296.46,100.792,296.63,101.363,296.703,101.946"/>
<path fill="#FFFFFF" d="M87.377,197.121c-0.585,5.39-4.093,10.217-10.715,10.953c-1.754,0.194-3.334,0.172-4.849-0.153
	c-1.97,4.459-5.357,7.695-10.91,8.312c-9.837,1.094-15.152-6.798-16.233-16.537c-1.59-14.319,5.24-23.854,7.382-24.092
	c2.533-0.281,5.055,4.666,2.706,6.603c-1.299,2.509-3.821,6.438-2.75,16.082c0.909,8.181,4.577,11.916,8.376,11.495
	c2.727-0.304,4.318-1.96,5.335-4.341c-5.01-3.387-8.16-9.545-8.939-16.559c-0.681-6.136,1.365-11.688,6.625-12.273
	c4.579-0.508,9.048,5.996,10.098,15.445c0.4,3.604,0.41,7.251-0.196,10.671c0.703,0.12,1.288,0.055,1.97-0.021
	c4.188-0.466,6.072-3.929,6.234-7.792C81.651,192.629,88.037,191.526,87.377,197.121 M66.867,198.906
	c0.022-1.58-0.043-3.053-0.205-4.514c-0.735-6.623-1.568-11.461-3.614-11.234c-1.072,0.119-1.483,1.743-1.148,4.762
	C62.387,192.304,64.303,196.232,66.867,198.906"/>
<path fill="#FFFFFF" d="M101.129,176.169c-0.205-1.852-0.661-2.393-0.736-3.074c-0.108-0.975,0.985-1.786,2.348-1.938
	c3.215-0.357,5.476,1.363,5.736,3.701l2.91,26.203c0.206,1.85,0.726,2.976,2.478,2.781c4.773-0.53,9.492-7.76,8.237-19.059
	c-0.876-7.89-3.83-9.632-5.206-10.466c-0.529-0.335-1.396-0.141-1.46-0.726c-0.195-1.753,1.612-5.011,3.463-5.216
	c3.897-0.433,9.61,7.512,10.541,15.888c1.46,13.15-4.634,24.871-16.127,26.147c-6.234,0.693-8.755-3.366-9.339-8.627
	L101.129,176.169z"/>
<path fill="#FFFFFF" d="M168.904,187.082c0.162-2.089,1.039-3.073,2.013-3.182c1.559-0.172,3.648,1.764,3.854,3.616
	c0.011,0.097,0.033,0.292-0.022,0.692c-0.941,6.613-3.865,15.812-12.241,16.743c-3.41,0.379-6.224-0.985-7.944-3.161
	c-1.699,2.457-4.232,4.513-7.933,4.925c-7.597,0.843-12.305-5.142-13.225-13.423c-1.806-16.267,8.389-27.456,20.273-28.775
	c2.63-0.292,4.653,1.061,4.935,3.594c0.184,1.656-0.043,2.272-1.017,2.381c-0.877,0.097-1.873,0.011-2.847,0.118
	c-7.403,0.822-15.368,8.116-13.811,22.143c0.563,5.066,3.03,7.749,6.439,7.371c2.631-0.292,4.124-2.825,4.893-5.671l-1.667-15
	c-0.205-1.85-0.659-2.392-0.735-3.073c-0.108-0.975,0.984-1.786,2.348-1.938c3.215-0.357,5.477,1.364,5.737,3.701l1.784,16.073
	c0.238,2.143,1.471,4.373,3.809,4.113C167.441,197.894,168.503,191.465,168.904,187.082"/>
<path fill="#FFFFFF" d="M196.386,185.903c-1.169,5.455-4.849,15.823-13.713,16.808c-7.501,0.833-12.066-3.887-12.921-11.582
	l-4.922-44.319c-0.811-7.306,2.608-12.911,7.479-13.452c8.571-0.952,9.805,9.265,10.411,14.719
	c1.59,14.318-5.089,34.979-6.226,36.289l0.627,5.648c0.433,3.896,2.305,6.548,5.91,6.148c4.48-0.498,7.111-7.002,7.51-11.385
	C191.073,178.9,196.819,182.7,196.386,185.903 M175.077,171.605c1.592-4.318,2.208-17.403,1.614-22.76
	c-0.714-6.429-2.11-9.232-3.669-9.059c-1.071,0.119-1.202,2.5-1.028,4.058L175.077,171.605z"/>
<path fill="#FFFFFF" d="M232.038,181.057c-0.585,5.39-4.093,10.217-10.716,10.953c-1.753,0.194-3.333,0.173-4.848-0.153
	c-1.971,4.459-5.357,7.696-10.91,8.313c-9.837,1.092-15.152-6.798-16.233-16.538c-1.591-14.319,5.24-23.854,7.381-24.092
	c2.533-0.281,5.056,4.666,2.707,6.603c-1.299,2.509-3.821,6.438-2.75,16.082c0.908,8.181,4.577,11.916,8.376,11.494
	c2.727-0.303,4.318-1.959,5.335-4.34c-5.01-3.387-8.16-9.545-8.938-16.559c-0.682-6.136,1.365-11.688,6.624-12.273
	c4.578-0.508,9.048,5.996,10.098,15.445c0.4,3.604,0.41,7.251-0.196,10.671c0.703,0.12,1.288,0.055,1.971-0.021
	c4.188-0.466,6.072-3.929,6.234-7.793C226.313,176.564,232.698,175.461,232.038,181.057 M211.529,182.842
	c0.021-1.58-0.043-3.053-0.205-4.514c-0.736-6.623-1.569-11.461-3.614-11.234c-1.072,0.119-1.482,1.742-1.147,4.762
	C207.049,176.24,208.965,180.167,211.529,182.842"/>
<path fill="#FFFFFF" d="M238.233,185.3c-0.691-6.234,0.294-13.344,2.479-22.068l-7.401,0.822l-1.072,0.119
	c0.324,3.81,0.682,12.349-0.445,18.193c-0.812,4.231-6.267,1.288-5.757-2.121c0.639-4.016,0.13-12.144-0.324-17.121
	c-2.587-1.095-4.567-2.945-4.881-5.77c-0.303-2.728,1.84-4.741,4.373-5.022c2.338-0.26,5.195,0.607,6.71,4.482
	c3.258,0.032,4.232-0.076,5.206-0.185l5.064-0.562c1.169-0.13,5.423,2.651,5.281,4.935c0.13,1.169-2.977,13.15-1.895,22.89
	c0.303,2.728,1.85,5.12,4.479,4.828c4.481-0.498,5.444-6.915,5.846-11.299c0.161-2.088,1.039-3.074,2.013-3.181
	c1.559-0.173,3.646,1.764,3.852,3.615c0.033,0.292-0.042,0.498-0.021,0.692c-1.04,6.624-3.864,15.812-12.242,16.743
	C244.922,195.798,239.186,193.872,238.233,185.3"/>
<path fill="#FFFFFF" d="M276.204,176.448c-1.654-14.903,6.441-24.578,16.896-27.218l-2.444-22.014
	c-0.313-2.824-1.31-2.912-1.385-3.593c-0.076-0.682,1.633-1.267,2.998-1.418c3.214-0.357,5.476,1.365,5.734,3.702l5.809,52.307
	c0.238,2.143,1.473,4.372,3.81,4.113c3.896-0.433,4.957-6.861,5.357-11.245c0.163-2.088,1.041-3.073,2.014-3.182
	c1.559-0.173,3.647,1.764,3.854,3.616c0.011,0.097,0.032,0.292-0.022,0.692c-0.941,6.613-3.864,15.813-12.241,16.743
	c-3.312,0.368-6.114-0.899-7.824-2.978c-1.905,2.382-4.546,4.352-8.247,4.763C282.913,191.579,277.341,186.675,276.204,176.448
	 M296.486,179.718l-2.671-24.059c-6.202,1.872-11.539,7.099-10.187,19.274c0.778,7.014,4.22,9.589,7.63,9.211
	C293.792,183.863,295.458,182.001,296.486,179.718"/>
<path fill="#FFFFFF" d="M321.858,174.632c1.731,3.16,4.666,5.596,9.729,5.033c7.6-0.844,10.013-7.521,10.521-13.592
	c0.389-4.481,6.061-3.139,6.05,0.313c-0.023,6.019-2.61,18.238-16.929,19.828c-8.862,0.984-18.03-5.196-19.383-17.373
	c-1.373-12.371,5.001-22.446,12.503-23.278c5.454-0.606,9.209,3.02,9.858,8.864C335.01,161.635,330.993,170.758,321.858,174.632
	 M320.095,169.404c4.622-2.781,7.177-8.191,6.528-14.037c-0.238-2.142-1.159-3.321-2.425-3.181
	c-4.773,0.53-5.044,11.406-4.396,15.476C319.868,168.247,320.03,168.82,320.095,169.404"/>
<path fill="#FFFFFF" d="M53.046,271.244c-1.941,4.326-4.776,7.559-9.067,7.978c-6.535,0.64-10.883-4.548-11.713-13.033
	c-1.013-10.338,1.364-22.289,1.364-22.289c0.52-1.726-0.353-3.609,4.816-4.116c4.78-0.468,2.333,3.711,2.085,5.213
	c-1.049,7.39-1.702,11.785-0.899,19.979c0.515,5.267,2.45,7.934,5.278,7.657c3.902-0.382,6.207-7.009,6.71-13.951l-1.537-15.703
	c-0.277-2.829-1.271-2.93-1.338-3.611c-0.067-0.684,1.651-1.245,3.017-1.379c3.218-0.315,5.458,1.435,5.686,3.776l2.425,24.775
	c0.086,0.877,0.439,4.486,2.976,4.238c3.901-0.381,5.046-6.796,5.504-11.175c0.189-2.086,1.079-3.06,2.054-3.155
	c1.561-0.152,3.624,1.813,3.805,3.665c0.01,0.099,0.029,0.294-0.03,0.693c-1.125,6.609-4.071,15.761-12.458,16.582
	C57.332,277.816,54.11,275.08,53.046,271.244"/>
<path fill="#FFFFFF" d="M114.689,272.204c-5.17,0.506-8.604-3.393-9.092-8.367l-1.938-19.801c-0.296-3.024-0.739-5.54-2.396-5.378
	c-2.634,0.258-7.373,9.189-7.203,16.953l1.393,14.24c0.182,1.853,0.508,4.185-2.32,4.462c-1.951,0.19-4.748-0.227-5.102-3.834
	l-2.415-24.677c-0.296-3.024-0.739-5.54-2.397-5.378c-2.634,0.257-7.373,9.189-7.204,16.952l1.395,14.24
	c0.181,1.853,0.508,4.186-2.32,4.463c-1.952,0.19-4.749-0.226-5.102-3.835l-3.026-30.92c-0.182-1.853-0.63-2.399-0.697-3.082
	c-0.095-0.976,1.009-1.772,2.374-1.906c3.219-0.315,5.458,1.435,5.687,3.775l0.401,4.097c2.021-5.515,5.034-9.946,9.422-10.375
	c5.853-0.573,7.979,4.044,8.604,8.413c1.932-5.407,4.955-9.74,9.344-10.169c6.34-0.621,8.328,4.6,8.767,9.086l1.976,20.191
	c0.085,0.877,0.439,4.487,2.976,4.238c3.902-0.382,5.045-6.796,5.503-11.174c0.19-2.086,1.08-3.06,2.054-3.154
	c1.562-0.153,3.625,1.811,3.806,3.665c0.01,0.097,0.028,0.293-0.031,0.691C126.022,262.231,123.077,271.383,114.689,272.204"/>
<path fill="#FFFFFF" d="M142.973,251.219c0.556-4.389,2.059-10.148,3.31-15.49c-1.12-1.367-1.847-2.772-2.009-4.431
	c-0.325-3.316,4.902-8.259,7.536-8.517c2.341-0.229,3.684,1.41,3.942,4.045c0.277,2.828-1.653,6.267-1.693,6.862
	c5.377,7.646,11.671,10.576,12.578,19.841c0.114,1.171,0.043,2.458-0.144,3.56c4.489-1.424,6.543-4.579,7.31-7.806
	c0.501-1.92,1.109-2.767,1.986-2.852c1.658-0.163,3.76,2.19,3.894,3.557c0.191,1.951-1.69,5.876-3.752,7.95
	c-2.785,2.734-6.602,4.978-12.612,5.961c-2.139,2.276-5.215,4.056-9.214,4.447c-4.097,0.401-8.999-1.386-11.131-3.047
	c-5.227-4.116-3.1-9.545-0.955-9.755c1.952-0.19,11.381,4.598,16.258,4.121c0.949-1.373,1.802-3.723,1.564-6.16
	c-0.601-6.145-4.612-9.889-8.369-13.065c-1.188,3.956-1.839,7.368-2.649,12.174C148.149,256.816,142.517,254.609,142.973,251.219"/>
<path fill="#FFFFFF" d="M215.646,246.173c-0.654,5.381-4.224,10.163-10.856,10.813c-1.755,0.171-3.335,0.129-4.847-0.217
	c-2.027,4.433-5.457,7.626-11.017,8.17c-9.851,0.964-15.062-6.995-16.017-16.748c-1.403-14.34,5.55-23.784,7.696-23.994
	c2.536-0.248,4.994,4.731,2.619,6.639c-1.332,2.491-3.904,6.388-2.959,16.044c0.802,8.193,4.421,11.975,8.226,11.603
	c2.73-0.268,4.343-1.902,5.391-4.271c-4.965-3.452-8.034-9.65-8.722-16.674c-0.601-6.145,1.517-11.671,6.784-12.186
	c4.584-0.449,8.97,6.113,9.896,15.574c0.353,3.61,0.315,7.257-0.336,10.669c0.702,0.128,1.288,0.071,1.971,0.004
	c4.194-0.41,6.122-3.849,6.335-7.71C209.98,241.606,216.381,240.587,215.646,246.173 M195.116,247.69
	c0.043-1.58-0.003-3.054-0.146-4.517c-0.648-6.632-1.419-11.48-3.467-11.28c-1.073,0.105-1.506,1.723-1.209,4.747
	C190.724,241.03,192.586,244.983,195.116,247.69"/>
<path fill="#FFFFFF" d="M221.785,250.496c-0.61-6.243,0.468-13.34,2.768-22.034l-7.413,0.726l-1.072,0.104
	c0.274,3.814,0.52,12.358-0.683,18.186c-0.866,4.222-6.282,1.208-5.729-2.195c0.692-4.006,0.289-12.141-0.1-17.125
	c-2.573-1.127-4.529-3.002-4.806-5.831c-0.268-2.73,1.901-4.717,4.438-4.965c2.341-0.229,5.187,0.675,6.649,4.568
	c3.258,0.075,4.233-0.021,5.209-0.115l5.071-0.497c1.171-0.114,5.388,2.723,5.217,5.004c0.114,1.171-3.147,13.109-2.193,22.862
	c0.267,2.732,1.783,5.145,4.417,4.887c4.486-0.438,5.533-6.844,5.992-11.222c0.188-2.087,1.078-3.06,2.054-3.154
	c1.561-0.154,3.623,1.811,3.806,3.664c0.027,0.294-0.051,0.497-0.031,0.692c-1.125,6.61-4.069,15.761-12.459,16.581
	C228.336,261.081,222.625,259.079,221.785,250.496"/>
<path fill="#FFFFFF" d="M251.733,247.564c-0.611-6.241,0.468-13.339,2.767-22.033l-7.411,0.726l-1.074,0.104
	c0.275,3.813,0.521,12.357-0.682,18.186c-0.866,4.222-6.282,1.207-5.729-2.195c0.691-4.007,0.289-12.142-0.101-17.124
	c-2.571-1.128-4.528-3.004-4.806-5.833c-0.267-2.73,1.902-4.716,4.438-4.964c2.341-0.229,5.187,0.674,6.65,4.568
	c3.257,0.075,4.232-0.021,5.208-0.116l5.072-0.496c1.171-0.115,5.388,2.722,5.217,5.003c0.114,1.172-3.148,13.11-2.193,22.864
	c0.267,2.731,1.783,5.144,4.417,4.885c4.486-0.438,5.533-6.843,5.991-11.221c0.189-2.087,1.079-3.061,2.055-3.155
	c1.561-0.153,3.623,1.812,3.805,3.665c0.028,0.293-0.05,0.497-0.03,0.692c-1.125,6.609-4.07,15.761-12.459,16.581
	C258.283,258.149,252.573,256.147,251.733,247.564"/>
<path fill="#FFFFFF" d="M265.428,201.321c-0.334-3.414,2.051-6.208,5.27-6.523c3.414-0.334,6.198,1.954,6.532,5.368
	c0.314,3.219-1.953,6.197-5.367,6.532C268.644,207.013,265.743,204.54,265.428,201.321 M277.896,245.202
	c0.085,0.877,0.439,4.486,2.976,4.237c3.901-0.382,5.046-6.796,5.504-11.174c0.587-6.063,6.303-1.995,5.828,1.202
	c-1.125,6.609-4.07,15.761-12.459,16.581c-5.168,0.507-8.604-3.392-9.09-8.366l-2.549-26.042c-0.181-1.854-0.629-2.401-0.695-3.083
	c-0.096-0.976,1.008-1.773,2.373-1.907c3.22-0.314,5.458,1.436,5.688,3.775L277.896,245.202z"/>
<path fill="#FFFFFF" d="M286.564,237.164c0.556-4.388,2.059-10.147,3.31-15.488c-1.119-1.367-1.848-2.773-2.01-4.432
	c-0.325-3.316,4.902-8.259,7.536-8.516c2.341-0.23,3.684,1.41,3.941,4.044c0.277,2.828-1.652,6.267-1.692,6.862
	c5.377,7.646,11.669,10.575,12.576,19.843c0.115,1.169,0.045,2.456-0.143,3.558c4.489-1.423,6.542-4.578,7.311-7.805
	c0.501-1.92,1.108-2.768,1.985-2.853c1.658-0.163,3.76,2.191,3.894,3.558c0.19,1.95-1.69,5.876-3.752,7.949
	c-2.785,2.734-6.604,4.978-12.613,5.961c-2.138,2.276-5.215,4.056-9.213,4.447c-4.097,0.401-8.998-1.385-11.132-3.047
	c-5.227-4.116-3.1-9.545-0.954-9.755c1.951-0.19,11.381,4.598,16.257,4.121c0.95-1.373,1.803-3.722,1.564-6.159
	c-0.601-6.145-4.611-9.889-8.368-13.066c-1.188,3.957-1.84,7.369-2.649,12.175C291.74,242.764,286.108,240.557,286.564,237.164"/>
<path fill="#FFFFFF" d="M359.237,232.119c-0.654,5.382-4.223,10.162-10.855,10.812c-1.757,0.172-3.336,0.13-4.847-0.216
	c-2.027,4.434-5.458,7.626-11.017,8.169c-9.852,0.965-15.062-6.995-16.017-16.748c-1.403-14.338,5.551-23.783,7.695-23.992
	c2.537-0.249,4.992,4.729,2.619,6.637c-1.331,2.492-3.904,6.39-2.959,16.045c0.802,8.192,4.422,11.976,8.225,11.603
	c2.732-0.268,4.344-1.902,5.394-4.271c-4.966-3.452-8.035-9.65-8.723-16.673c-0.603-6.146,1.516-11.672,6.783-12.187
	c4.584-0.449,8.969,6.113,9.896,15.575c0.353,3.609,0.315,7.256-0.334,10.668c0.7,0.129,1.286,0.071,1.968,0.004
	c4.195-0.41,6.122-3.848,6.337-7.709C353.573,227.553,359.973,226.533,359.237,232.119 M338.706,233.637
	c0.043-1.58-0.003-3.053-0.146-4.516c-0.648-6.633-1.419-11.48-3.465-11.28c-1.075,0.104-1.506,1.723-1.21,4.746
	C334.314,226.977,336.178,230.93,338.706,233.637"/>
<path fill="#FFFFFF" d="M367.176,229.669c-0.153-1.561-0.363-3.706-0.39-4.984c-0.015-2.165,0.467-3.295,1.708-4.697
	c3.037-3.152,10.387-10.568,9.05-24.223c-1.213-12.388-7.687-13.132-10.611-12.846c-4.585,0.449-8.961,4.028-8.092,12.903
	c0.41,4.195,2.397,9.417,4.35,9.225c0.391-0.039,0.665-0.262,0.857-0.281c0.586-0.058,0.918,0.305,0.965,0.792
	c0.153,1.561-1.912,4.618-5.034,4.924c-4.193,0.411-7.92-7.496-8.551-13.934c-1.288-13.167,6.43-19.831,14.816-20.652
	c10.536-1.032,17.531,7.048,18.725,19.241c1.335,13.655-4.698,21.433-9.819,27.45c-0.97,1.179-0.934,2.554-0.801,3.919l0.373,3.804
	C375.151,234.698,367.548,233.473,367.176,229.669 M376.786,241.332c0.238,2.438-1.601,4.784-4.233,5.043
	c-2.635,0.258-4.988-1.679-5.228-4.117c-0.258-2.633,1.687-4.892,4.321-5.148C374.279,236.851,376.529,238.699,376.786,241.332"/>
<path fill="#FFFFFF" d="M204.723,398.544c-0.551,0-1.103-0.149-1.59-0.449c-0.615-0.38-15.249-9.431-30.115-22.304
	c-20.408-17.669-30.727-33.334-30.67-46.554c0.081-18.332,14.723-38.761,35.606-38.761c9.309,0,16.27,3.886,25.241,11.097
	c4.466-3.529,9.862-6.461,15.454-8.373c4.666-1.807,8.988-2.724,12.844-2.724c20.886,0,35.533,20.427,35.616,38.761
	c0.057,13.223-10.264,28.886-30.676,46.556c-14.869,12.872-29.505,21.922-30.12,22.302
	C205.825,398.395,205.273,398.544,204.723,398.544 M177.954,296.542c-13.905,0-29.457,13.438-29.541,32.722
	c-0.049,11.198,9.813,25.686,28.518,41.894c11.718,10.152,23.59,18.058,27.792,20.764c4.202-2.706,16.078-10.61,27.798-20.763
	c18.709-16.208,28.571-30.694,28.522-41.895c-0.087-19.283-15.645-32.722-29.551-32.722c-3.074,0-6.776,0.808-10.705,2.335
	c-0.042,0.017-0.082,0.03-0.123,0.046c-4.578,1.558-8.999,3.88-12.748,6.671c2.822,2.775,9.249,10.149,6.622,17.56
	c-1.7,4.797-5.9,7.777-10.96,7.777c-3.746-0.001-7.321-1.621-9.562-4.336c-1.984-2.403-2.74-5.468-2.13-8.629
	c0.808-4.178,3.129-8.362,6.771-12.248C189.939,298.826,184.636,296.542,177.954,296.542 M203.34,309.593
	c-3.004,3.121-4.891,6.378-5.498,9.523c-0.269,1.391,0.019,2.606,0.853,3.618c1.085,1.313,2.957,2.131,4.884,2.131
	c1.464,0,4.09-0.485,5.242-3.738C210.152,317.374,206.01,312.072,203.34,309.593"/>
<path fill="#FFFFFF" d="M368.558,144.93c-0.279,0-0.563-0.035-0.847-0.106c-1.856-0.466-2.983-2.349-2.517-4.206
	c8.786-34.968-11.646-51.239-33.276-68.465c-13.023-10.37-26.372-21.002-32.568-35.932c-42.159,13.266-94.993,13-142.151,12.768
	c-48.336-0.241-90.085-0.45-101.006,14.6c-3.29,4.533-3.625,10.545-1.024,18.379c0.603,1.816-0.381,3.778-2.199,4.38
	c-1.816,0.604-3.777-0.381-4.38-2.198c-3.307-9.965-2.637-18.253,1.993-24.632c13.009-17.929,54.332-17.727,106.652-17.461
	c46.615,0.231,98.835,0.494,139.944-12.418c-0.876-3.529-1.365-7.289-1.388-11.32c-0.045-7.912,4.222-13.217,11.414-14.188
	c7.347-0.993,17.012,3.276,18.952,10.478c1.017,3.773,0.627,10.968-13.401,16.767c-2.23,0.921-4.501,1.796-6.808,2.625
	c5.588,13.061,17.683,22.692,30.288,32.731c21.354,17.005,45.555,36.278,35.682,75.576
	C371.521,143.88,370.109,144.93,368.558,144.93 M309.492,10.909c-0.455,0-0.91,0.029-1.359,0.09
	c-3.665,0.495-5.436,2.876-5.411,7.28c0.018,3.229,0.387,6.264,1.059,9.134c2.146-0.774,4.254-1.587,6.326-2.444
	c6.474-2.675,10.059-5.955,9.357-8.558C318.747,13.752,314.029,10.909,309.492,10.909"/>
<path fill="#FFFFFF" d="M48.425,353.013c-3.041,0-5.979-0.831-8.214-2.57c-3.786-2.948-8.322-10.371,3.083-27.179
	c-41.971-44.431-36.65-73.479-31.497-101.638c2.502-13.673,4.866-26.588,1.696-41.079c-0.359-1.637,0.678-3.253,2.313-3.611
	c1.637-0.358,3.253,0.679,3.61,2.314c3.431,15.681,0.846,29.807-1.655,43.467c-2.61,14.268-5.311,29.021-1.114,45.765
	c3.984,15.896,13.939,32.28,30.31,49.813c35.503-44.276,107.493-32.271,131.595-28.247c1.039,0.173,1.982,0.33,2.825,0.467
	c1.654,0.268,2.777,1.824,2.509,3.478c-0.268,1.654-1.828,2.773-3.478,2.51c-0.852-0.139-1.806-0.296-2.855-0.473
	c-23.323-3.89-93.237-15.551-126.358,26.685c1.945,1.977,3.973,3.973,6.081,5.98c10.109,9.637,5.216,16.973,3.475,18.992
	C57.769,351.146,52.982,353.013,48.425,353.013 M47.615,327.723c-5.566,8.576-6.994,15.352-3.677,17.934
	c3.011,2.346,9.407,1.334,12.221-1.931c3.019-3.501-0.001-7.719-3.066-10.642C51.19,331.273,49.367,329.486,47.615,327.723"/>
<path fill="#FFFFFF" d="M284.354,273.252c0.894-2.301,2.282-4.24,4.056-4.518c0.856-0.134,2.18,0.317,2.495,2.337l2.782,17.825
	c0.358,2.293,1.797,1.881,1.897,2.523c0.071,0.458-0.45,1.133-1.397,1.282c-0.888,0.138-2.373-0.351-2.805-2.914l-2.835-18.162
	c-0.062-0.397-0.22-0.404-0.342-0.386c-0.917,0.144-3.327,5.374-2.921,7.974l1.842,11.802c0.081,0.52-0.287,0.766-0.746,0.837
	c-0.703,0.11-1.596-0.188-1.666-0.648l-2.965-18.986c-2.699,0.767-4.643,3.166-4.041,7.02c0.382,2.446,1.848,3.814,2.246,3.753
	c0.183-0.028,0.317-0.175,0.471-0.198c0.152-0.024,0.268,0.115,0.301,0.327c0.162,1.04-0.541,2.152-1.335,2.276
	c-1.04,0.162-3.54-2.204-4.098-5.782c-1.012-6.481,3.639-9.399,7.247-9.963c0.641-0.1,1.307,0.36,1.423,1.094L284.354,273.252z"/>
<path fill="#FFFFFF" d="M308.928,283.198c-0.109,1.708-1.148,3.278-3.228,3.604c-0.551,0.087-1.049,0.101-1.531,0.02
	c-0.56,1.435-1.582,2.502-3.326,2.774c-3.087,0.481-4.874-1.934-5.351-4.99c-0.702-4.494,1.319-7.599,1.992-7.703
	c0.795-0.124,1.659,1.401,0.945,2.045c-0.374,0.81-1.115,2.084-0.643,5.111c0.401,2.568,1.61,3.695,2.803,3.51
	c0.856-0.135,1.335-0.679,1.622-1.444c-1.627-0.997-2.707-2.897-3.051-5.098c-0.3-1.926,0.268-3.707,1.919-3.965
	c1.437-0.225,2.938,1.766,3.4,4.731c0.177,1.131,0.23,2.281,0.088,3.369c0.223,0.027,0.406-0.002,0.621-0.034
	c1.313-0.205,1.859-1.324,1.857-2.545C307.059,281.861,309.059,281.424,308.928,283.198 M298.886,274.648
	c-0.182,0.436-0.586,0.654-0.923,0.707c-0.825,0.129-1.249-0.181-1.302-0.518c-0.024-0.151,0.074-0.323,0.173-0.496l2.281-3.645
	c0.008-0.346,0.491-0.673,0.918-0.739c0.581-0.09,1.312,0.172,1.393,0.691c0.043,0.275-0.147,0.462-0.271,0.67L298.886,274.648z
	 M302.483,284.047c-0.016-0.499-0.057-0.963-0.129-1.421c-0.323-2.079-0.654-3.594-1.297-3.493
	c-0.336,0.053-0.442,0.569-0.295,1.518C300.978,282.026,301.636,283.238,302.483,284.047"/>
<path fill="#FFFFFF" d="M307.055,282.832c0.095-1.393,0.466-3.236,0.763-4.942c-0.377-0.411-0.632-0.841-0.714-1.361
	c-0.161-1.038,1.396-2.691,2.223-2.821c0.733-0.113,1.186,0.379,1.315,1.205c0.139,0.886-0.408,2.005-0.409,2.193
	c1.832,2.313,3.87,3.123,4.323,6.027c0.057,0.367,0.058,0.774,0.019,1.126c1.39-0.53,1.98-1.563,2.164-2.594
	c0.123-0.614,0.299-0.892,0.573-0.935c0.521-0.083,1.226,0.622,1.293,1.051c0.095,0.611-0.427,1.883-1.04,2.573
	c-0.828,0.913-1.991,1.688-3.867,2.108c-0.634,0.756-1.571,1.371-2.825,1.566c-1.284,0.201-2.862-0.272-3.563-0.759
	c-1.723-1.202-1.15-2.952-0.478-3.057c0.612-0.096,3.671,1.243,5.2,1.004c0.273-0.449,0.5-1.205,0.381-1.969
	c-0.301-1.926-1.632-3.033-2.874-3.969c-0.304,1.27-0.447,2.357-0.616,3.887C308.786,284.504,306.972,283.91,307.055,282.832"/>
<path fill="#FFFFFF" d="M286.255,309.256c0.096-1.393,0.466-3.236,0.763-4.942c-0.376-0.412-0.632-0.841-0.713-1.361
	c-0.162-1.039,1.396-2.691,2.222-2.82c0.734-0.115,1.187,0.379,1.315,1.204c0.139,0.887-0.407,2.006-0.409,2.193
	c1.833,2.313,3.871,3.123,4.324,6.028c0.057,0.366,0.058,0.774,0.019,1.124c1.389-0.53,1.979-1.562,2.163-2.592
	c0.124-0.615,0.3-0.894,0.574-0.937c0.521-0.081,1.226,0.623,1.292,1.051c0.096,0.612-0.427,1.884-1.039,2.574
	c-0.829,0.913-1.992,1.689-3.867,2.107c-0.635,0.756-1.571,1.372-2.825,1.568c-1.285,0.2-2.862-0.274-3.564-0.76
	c-1.722-1.201-1.15-2.951-0.477-3.058c0.611-0.095,3.671,1.244,5.199,1.006c0.273-0.45,0.5-1.205,0.382-1.971
	c-0.301-1.926-1.633-3.033-2.874-3.967c-0.304,1.268-0.447,2.355-0.616,3.886C287.987,310.927,286.172,310.334,286.255,309.256"/>
<path fill="#FFFFFF" d="M306.793,306.395c0.021-0.661,0.284-0.983,0.591-1.031c0.488-0.076,1.175,0.507,1.265,1.086
	c0.006,0.031,0.016,0.093,0.003,0.22c-0.204,2.099-0.998,5.04-3.628,5.452c-1.069,0.167-1.977-0.224-2.549-0.887
	c-0.502,0.799-1.272,1.483-2.435,1.664c-2.385,0.371-3.953-1.45-4.358-4.049c-0.798-5.107,2.262-8.777,5.993-9.36
	c0.825-0.129,1.482,0.27,1.606,1.064c0.081,0.52,0.019,0.717-0.288,0.765c-0.275,0.044-0.59,0.029-0.896,0.077
	c-2.323,0.363-4.734,2.775-4.047,7.179c0.248,1.59,1.063,2.401,2.134,2.234c0.826-0.128,1.263-0.948,1.465-1.857l-0.734-4.709
	c-0.092-0.581-0.242-0.744-0.275-0.958c-0.048-0.306,0.285-0.577,0.713-0.644c1.009-0.158,1.747,0.354,1.861,1.088l0.787,5.044
	c0.105,0.673,0.525,1.359,1.26,1.244C306.482,309.826,306.728,307.783,306.793,306.395"/>
<path fill="#FFFFFF" d="M311.768,298.54c1.621-0.253,3.484,1.053,4.019,4.478c0.187,1.192,0.225,2.439,0.086,3.558
	c0.224,0.028,0.438-0.006,0.651-0.04c1.315-0.204,1.861-1.322,1.857-2.543c0.014-0.724,2.013-1.161,1.882,0.613
	c-0.109,1.708-1.147,3.28-3.228,3.604c-0.55,0.086-1.08,0.106-1.592,0.03c-0.56,1.434-1.613,2.506-3.388,2.782
	c-2.813,0.44-4.641-1.436-5.107-4.432l-2.277-14.585c-0.138-0.887-0.453-0.901-0.486-1.115c-0.034-0.213,0.498-0.422,0.926-0.488
	c1.009-0.158,1.747,0.354,1.861,1.086l2.233,14.311c0.314,2.018,1.252,3.407,2.72,3.178c0.765-0.119,1.217-0.629,1.483-1.328
	c-1.938-0.98-3.342-2.955-3.681-5.126C309.341,300.046,310.331,298.765,311.768,298.54 M313.663,305.667
	c0.013-0.722-0.071-1.462-0.162-2.042c-0.319-2.049-1.021-3.129-1.571-3.043c-0.398,0.062-0.46,0.666-0.326,1.523
	C311.833,303.572,312.628,304.857,313.663,305.667"/>
<path fill="#FFFFFF" d="M321.198,305.586c0.591,0.975,1.55,1.7,3.14,1.452c2.385-0.372,3.053-2.511,3.129-4.435
	c0.06-1.418,1.868-1.074,1.913,0.015c0.076,1.9-0.569,5.79-5.063,6.491c-2.782,0.434-5.761-1.387-6.356-5.209
	c-0.606-3.884,1.264-7.15,3.619-7.518c1.711-0.268,2.946,0.824,3.233,2.658C325.165,301.303,324.026,304.237,321.198,305.586
	 M320.568,303.963c1.419-0.941,2.15-2.685,1.863-4.52c-0.104-0.672-0.411-1.032-0.809-0.97c-1.498,0.233-1.432,3.668-1.171,4.943
	C320.48,303.602,320.54,303.779,320.568,303.963"/>
<path fill="#FFFFFF" d="M342.265,306.309c-1.621,0.252-2.773-0.914-3.018-2.474l-0.968-6.206c-0.149-0.948-0.334-1.734-0.854-1.652
	c-0.825,0.128-2.158,3.029-1.964,5.473l0.696,4.466c0.091,0.58,0.235,1.309-0.65,1.447c-0.612,0.095-1.502,0.016-1.678-1.115
	l-1.208-7.735c-0.147-0.948-0.333-1.733-0.853-1.652c-0.826,0.128-2.158,3.029-1.964,5.475l0.696,4.463
	c0.091,0.581,0.235,1.31-0.651,1.448c-0.611,0.097-1.501,0.016-1.677-1.116l-1.514-9.692c-0.09-0.58-0.241-0.745-0.274-0.96
	c-0.048-0.306,0.286-0.577,0.713-0.644c1.01-0.156,1.747,0.355,1.862,1.088l0.199,1.285c0.538-1.776,1.407-3.227,2.784-3.441
	c1.834-0.287,2.588,1.13,2.863,2.497c0.513-1.739,1.387-3.16,2.762-3.376c1.988-0.31,2.709,1.301,2.929,2.707l0.987,6.328
	c0.043,0.275,0.221,1.408,1.015,1.282c1.223-0.19,1.468-2.232,1.533-3.621c0.022-0.66,0.285-0.984,0.591-1.031
	c0.489-0.076,1.176,0.506,1.266,1.086c0.005,0.03,0.015,0.092,0.003,0.219C345.658,302.96,344.894,305.897,342.265,306.309"/>
<path fill="#FFFFFF" d="M357.136,298.851c-0.108,1.708-1.148,3.28-3.227,3.604c-0.551,0.086-1.049,0.101-1.531,0.02
	c-0.56,1.434-1.583,2.502-3.326,2.773c-3.088,0.481-4.875-1.932-5.352-4.989c-0.702-4.495,1.32-7.598,1.993-7.703
	c0.794-0.123,1.658,1.402,0.945,2.045c-0.375,0.811-1.115,2.085-0.643,5.11c0.4,2.569,1.609,3.696,2.802,3.511
	c0.856-0.135,1.335-0.678,1.622-1.444c-1.627-0.998-2.707-2.897-3.051-5.098c-0.3-1.927,0.269-3.708,1.919-3.965
	c1.437-0.225,2.938,1.766,3.4,4.73c0.177,1.131,0.23,2.283,0.088,3.369c0.224,0.029,0.407,0,0.621-0.033
	c1.313-0.205,1.86-1.324,1.857-2.545C355.267,297.514,357.267,297.076,357.136,298.851 M350.691,299.699
	c-0.015-0.498-0.057-0.962-0.128-1.42c-0.324-2.079-0.654-3.594-1.297-3.493c-0.337,0.052-0.443,0.57-0.295,1.519
	C349.186,297.68,349.845,298.893,350.691,299.699"/>
<path fill="#FFFFFF" d="M355.263,298.485c0.096-1.394,0.466-3.236,0.764-4.942c-0.378-0.411-0.633-0.841-0.714-1.361
	c-0.162-1.039,1.396-2.692,2.222-2.82c0.733-0.115,1.187,0.378,1.315,1.204c0.139,0.887-0.408,2.006-0.409,2.193
	c1.833,2.313,3.87,3.123,4.323,6.028c0.057,0.365,0.059,0.774,0.02,1.124c1.389-0.53,1.979-1.562,2.163-2.594
	c0.124-0.613,0.3-0.892,0.573-0.935c0.521-0.081,1.226,0.623,1.293,1.051c0.095,0.611-0.427,1.884-1.039,2.574
	c-0.829,0.913-1.991,1.688-3.867,2.107c-0.634,0.756-1.572,1.373-2.826,1.568c-1.284,0.2-2.861-0.274-3.563-0.76
	c-1.723-1.203-1.149-2.951-0.478-3.057c0.612-0.096,3.672,1.243,5.2,1.004c0.274-0.449,0.501-1.204,0.381-1.97
	c-0.3-1.926-1.631-3.033-2.874-3.967c-0.304,1.269-0.447,2.355-0.615,3.885C356.995,300.156,355.18,299.563,355.263,298.485"/>
<path fill="#FFFFFF" d="M370.996,300.163c0.12,0.766-0.448,1.542-1.272,1.672c-0.796,0.124-1.574-0.444-1.693-1.21
	c-0.129-0.823,0.444-1.57,1.239-1.694C370.095,298.801,370.868,299.338,370.996,300.163 M370.09,296.358
	c0.124,0.796-0.252,1.198-0.771,1.279c-0.643,0.101-1.498-0.361-1.626-1.187l-2.353-15.073c-0.091-0.581-0.404-0.784-0.442-1.028
	c-0.034-0.214,0.218-0.409,0.859-0.51c0.826-0.128,1.756,0.009,1.904,0.957L370.09,296.358z"/>
<path fill="#FFFFFF" d="M330.951,265.69c-3.891,0.438-5.974,4.589-5.631,7.769c0.632,5.849,13.168,11.75,13.168,11.75
	s10.917-8.536,10.234-14.379c-0.371-3.178-3.324-6.763-7.216-6.325c-1.785,0.2-3.905,1.617-5.023,2.851
	C335.118,266.4,332.736,265.49,330.951,265.69"/>
</svg>
