<?xml version="1.0" standalone="no"?>
<!DOCTYPE svg PUBLIC "-//W3C//DTD SVG 20010904//EN"
 "http://www.w3.org/TR/2001/REC-SVG-20010904/DTD/svg10.dtd">
<svg version="1.0" xmlns="http://www.w3.org/2000/svg"
 width="260.000000pt" height="200.000000pt" viewBox="0 0 260.000000 200.000000"
 preserveAspectRatio="xMidYMid meet">

<g transform="translate(0.000000,200.000000) scale(0.100000,-0.100000)"
fill="#000000" stroke="none">
<path d="M0 1000 l0 -1000 1300 0 1300 0 0 1000 0 1000 -1300 0 -1300 0 0
-1000z m1386 875 c58 -24 108 -70 139 -127 24 -44 29 -65 30 -123 0 -58 -5
-78 -27 -119 -30 -52 -35 -88 -15 -103 6 -6 41 -20 77 -32 169 -55 331 -193
414 -351 62 -117 81 -204 81 -370 0 -124 -3 -156 -23 -220 -44 -139 -107 -240
-150 -240 -11 0 -50 25 -88 55 -82 65 -160 108 -252 139 -94 32 -104 53 -62
140 39 80 42 150 9 225 -84 195 -365 203 -461 12 -40 -78 -39 -154 2 -239 42
-86 33 -105 -70 -141 -92 -32 -168 -75 -250 -141 -34 -28 -71 -50 -82 -50 -30
0 -67 44 -104 125 -57 124 -69 183 -69 340 1 161 21 251 81 366 82 156 239
289 414 350 36 12 71 27 78 32 19 15 15 45 -15 106 -68 138 -5 303 139 366 43
19 159 19 204 0z"/>
</g>
</svg>
